<mxfile host="app.diagrams.net" agent="Mozilla/5.0 (Windows NT 10.0; Win64; x64) AppleWebKit/537.36 (KHTML, like Gecko) Chrome/136.0.0.0 Safari/537.36" version="28.2.0">
  <diagram name="第 1 页" id="-SzqAPXL_7oRkjiwEb7A">
    <mxGraphModel dx="1966" dy="886" grid="0" gridSize="10" guides="1" tooltips="1" connect="1" arrows="1" fold="1" page="0" pageScale="1" pageWidth="827" pageHeight="1169" math="0" shadow="0">
      <root>
        <mxCell id="0" />
        <mxCell id="1" parent="0" />
        <mxCell id="-EdbTj7FJCB_akA6n4Iw-96" value="" style="text;html=1;fontSize=25;fontStyle=1;verticalAlign=top;align=left;rounded=0;fillColor=#DFDFDF;strokeColor=#36393d;shadow=0;sketch=1;curveFitting=1;jiggle=2;gradientColor=none;" parent="1" vertex="1">
          <mxGeometry x="382" y="1209" width="1807" height="775" as="geometry" />
        </mxCell>
        <mxCell id="-EdbTj7FJCB_akA6n4Iw-89" value="" style="text;html=1;fontSize=25;fontStyle=1;verticalAlign=top;align=left;rounded=0;fillColor=#f8cecc;strokeColor=#b85450;sketch=1;curveFitting=1;jiggle=2;shadow=0;" parent="1" vertex="1">
          <mxGeometry x="296" y="273" width="1880" height="669" as="geometry" />
        </mxCell>
        <mxCell id="-EdbTj7FJCB_akA6n4Iw-1" value="Browser&lt;br style=&quot;font-size: 25px&quot;&gt;&lt;font style=&quot;font-size: 21px&quot;&gt;&lt;font style=&quot;font-size: 21px&quot; color=&quot;#ff306e&quot;&gt;URL—&lt;br&gt;http://IP : port/Web工程路径/资源&lt;/font&gt;&lt;br&gt;&lt;/font&gt;&lt;br style=&quot;font-size: 25px&quot;&gt;1.浏览器将返回的数据进行解析&lt;br style=&quot;font-size: 25px&quot;&gt;，并展示数据。&lt;br style=&quot;font-size: 25px&quot;&gt;2.浏览器端关联到的技术有—&lt;br style=&quot;font-size: 25px&quot;&gt;&amp;nbsp; &amp;nbsp; HTML,CSS,JS,JQuery,&lt;br style=&quot;font-size: 25px&quot;&gt;&amp;nbsp; &amp;nbsp; Vue...等。" style="text;html=1;fontSize=25;fontStyle=1;verticalAlign=top;align=left;rounded=0;fillColor=#f9f7ed;strokeColor=#36393d;" parent="1" vertex="1">
          <mxGeometry x="330" y="380" width="360" height="330" as="geometry" />
        </mxCell>
        <mxCell id="-EdbTj7FJCB_akA6n4Iw-2" value="服务端/(tomcat)&lt;br style=&quot;font-size: 25px;&quot;&gt;&lt;br style=&quot;font-size: 25px;&quot;&gt;" style="text;html=1;fontSize=25;fontStyle=1;verticalAlign=top;align=left;rounded=0;fillColor=#fad9d5;strokeColor=#ae4132;" parent="1" vertex="1">
          <mxGeometry x="810" y="320" width="1060" height="580" as="geometry" />
        </mxCell>
        <mxCell id="-EdbTj7FJCB_akA6n4Iw-3" style="edgeStyle=orthogonalEdgeStyle;curved=1;rounded=0;orthogonalLoop=1;jettySize=auto;html=1;exitX=0;exitY=0.75;exitDx=0;exitDy=0;entryX=1;entryY=0.75;entryDx=0;entryDy=0;fontSize=25;fontStyle=1;align=left;strokeWidth=2;" parent="1" source="-EdbTj7FJCB_akA6n4Iw-6" target="-EdbTj7FJCB_akA6n4Iw-1" edge="1">
          <mxGeometry relative="1" as="geometry" />
        </mxCell>
        <mxCell id="-EdbTj7FJCB_akA6n4Iw-4" value="HTTP响应" style="edgeLabel;html=1;align=left;verticalAlign=middle;resizable=0;points=[];fontSize=22;labelBorderColor=#000000;fontStyle=1" parent="-EdbTj7FJCB_akA6n4Iw-3" vertex="1" connectable="0">
          <mxGeometry x="0.2652" y="8" relative="1" as="geometry">
            <mxPoint x="-52" y="30.29" as="offset" />
          </mxGeometry>
        </mxCell>
        <mxCell id="-EdbTj7FJCB_akA6n4Iw-5" style="edgeStyle=orthogonalEdgeStyle;curved=1;rounded=0;orthogonalLoop=1;jettySize=auto;html=1;exitX=1;exitY=0.25;exitDx=0;exitDy=0;entryX=0.005;entryY=0.044;entryDx=0;entryDy=0;entryPerimeter=0;fontSize=25;fontStyle=1;align=left;strokeWidth=2;" parent="1" source="-EdbTj7FJCB_akA6n4Iw-6" target="-EdbTj7FJCB_akA6n4Iw-9" edge="1">
          <mxGeometry relative="1" as="geometry" />
        </mxCell>
        <mxCell id="-EdbTj7FJCB_akA6n4Iw-6" value="Web层/视图层/View层&lt;br style=&quot;font-size: 25px&quot;&gt;&lt;br style=&quot;font-size: 25px&quot;&gt;&lt;span style=&quot;background-color: rgb(255 , 255 , 204) ; font-size: 25px&quot;&gt;功能 :&amp;nbsp;&lt;/span&gt;&lt;br style=&quot;font-size: 25px&quot;&gt;1.接收用户请求;&lt;br style=&quot;font-size: 25px&quot;&gt;2.调用Service层，完成业&lt;br style=&quot;font-size: 25px&quot;&gt;务处理;&lt;br style=&quot;font-size: 25px&quot;&gt;3.返回响应数据;&lt;br style=&quot;font-size: 25px&quot;&gt;4.有可能需要请求重定向，&lt;br style=&quot;font-size: 25px&quot;&gt;或请求转发;&lt;br style=&quot;font-size: 25px&quot;&gt;&lt;br style=&quot;font-size: 25px&quot;&gt;&lt;span style=&quot;background-color: rgb(255 , 255 , 204) ; font-size: 25px&quot;&gt;技术 : (多元化 =&amp;gt; MVC)&lt;/span&gt;&lt;br style=&quot;font-size: 25px&quot;&gt;1.HTML + CSS + JS&lt;br style=&quot;font-size: 25px&quot;&gt;2.JQuery&lt;br style=&quot;font-size: 25px&quot;&gt;3.Vue/其他前端框架&lt;br style=&quot;font-size: 25px&quot;&gt;4.servlet&lt;br style=&quot;font-size: 25px&quot;&gt;5.SpringMVC&lt;br style=&quot;font-size: 25px&quot;&gt;&lt;font style=&quot;font-size: 25px&quot;&gt;(PS : &lt;font color=&quot;#35219c&quot; style=&quot;font-size: 25px&quot;&gt;4和5都在服务端解析&lt;/font&gt;)&lt;/font&gt;" style="text;html=1;fontSize=25;fontStyle=1;verticalAlign=top;align=left;rounded=0;strokeColor=#666666;fontColor=#333333;fillColor=#DEDEDE;gradientColor=#FFFFFF;" parent="1" vertex="1">
          <mxGeometry x="830" y="360" width="290" height="520" as="geometry" />
        </mxCell>
        <mxCell id="-EdbTj7FJCB_akA6n4Iw-7" style="edgeStyle=orthogonalEdgeStyle;curved=1;rounded=0;orthogonalLoop=1;jettySize=auto;html=1;exitX=0;exitY=0.75;exitDx=0;exitDy=0;entryX=1.009;entryY=0.938;entryDx=0;entryDy=0;entryPerimeter=0;fontSize=25;fontStyle=1;align=left;strokeWidth=2;" parent="1" source="-EdbTj7FJCB_akA6n4Iw-9" target="-EdbTj7FJCB_akA6n4Iw-6" edge="1">
          <mxGeometry relative="1" as="geometry" />
        </mxCell>
        <mxCell id="-EdbTj7FJCB_akA6n4Iw-8" style="edgeStyle=orthogonalEdgeStyle;curved=1;rounded=0;orthogonalLoop=1;jettySize=auto;html=1;exitX=1;exitY=0.25;exitDx=0;exitDy=0;entryX=0.005;entryY=0.062;entryDx=0;entryDy=0;entryPerimeter=0;fontSize=25;fontStyle=1;align=left;strokeWidth=2;" parent="1" source="-EdbTj7FJCB_akA6n4Iw-9" target="-EdbTj7FJCB_akA6n4Iw-12" edge="1">
          <mxGeometry relative="1" as="geometry" />
        </mxCell>
        <mxCell id="-EdbTj7FJCB_akA6n4Iw-9" value="Service层/业务层&lt;br style=&quot;font-size: 25px;&quot;&gt;&lt;br style=&quot;font-size: 25px;&quot;&gt;&lt;span style=&quot;background-color: rgb(255, 255, 204); font-size: 25px;&quot;&gt;功能 :&amp;nbsp;&lt;/span&gt;&lt;br style=&quot;font-size: 25px;&quot;&gt;1.完成各种业务处理，提供&lt;br style=&quot;font-size: 25px;&quot;&gt;多种业务API接口，提供&lt;br style=&quot;font-size: 25px;&quot;&gt;多种可供调用的方法。&lt;br style=&quot;font-size: 25px;&quot;&gt;&lt;br style=&quot;font-size: 25px;&quot;&gt;&lt;span style=&quot;background-color: rgb(255, 255, 204); font-size: 25px;&quot;&gt;技术 : (专业化,专一)&lt;/span&gt;&lt;br style=&quot;font-size: 25px;&quot;&gt;1.JavaSE&lt;br style=&quot;font-size: 25px;&quot;&gt;2.Spring...等" style="text;html=1;fontSize=25;fontStyle=1;verticalAlign=top;align=left;rounded=0;strokeColor=#666666;fontColor=#333333;fillColor=#DEDEDE;gradientColor=#FFFFFF;" parent="1" vertex="1">
          <mxGeometry x="1200" y="360" width="290" height="520" as="geometry" />
        </mxCell>
        <mxCell id="-EdbTj7FJCB_akA6n4Iw-10" style="edgeStyle=orthogonalEdgeStyle;curved=1;rounded=0;orthogonalLoop=1;jettySize=auto;html=1;exitX=0;exitY=0.75;exitDx=0;exitDy=0;entryX=1.002;entryY=0.902;entryDx=0;entryDy=0;entryPerimeter=0;fontSize=25;fontStyle=1;align=left;strokeWidth=2;" parent="1" source="-EdbTj7FJCB_akA6n4Iw-12" target="-EdbTj7FJCB_akA6n4Iw-9" edge="1">
          <mxGeometry relative="1" as="geometry" />
        </mxCell>
        <mxCell id="-EdbTj7FJCB_akA6n4Iw-11" style="edgeStyle=orthogonalEdgeStyle;curved=1;rounded=0;orthogonalLoop=1;jettySize=auto;html=1;exitX=1;exitY=0.25;exitDx=0;exitDy=0;entryX=-0.003;entryY=0.341;entryDx=0;entryDy=0;entryPerimeter=0;fontSize=25;fontStyle=1;align=left;strokeWidth=2;" parent="1" source="-EdbTj7FJCB_akA6n4Iw-12" target="-EdbTj7FJCB_akA6n4Iw-16" edge="1">
          <mxGeometry relative="1" as="geometry" />
        </mxCell>
        <mxCell id="-EdbTj7FJCB_akA6n4Iw-12" value="DAO层/数据层/数据持久层&lt;br style=&quot;font-size: 25px;&quot;&gt;&lt;br style=&quot;font-size: 25px;&quot;&gt;&lt;span style=&quot;background-color: rgb(255, 255, 204); font-size: 25px;&quot;&gt;功能 :&amp;nbsp;&lt;/span&gt;&lt;br style=&quot;font-size: 25px;&quot;&gt;1.完成对DB的操作(CRUD)&lt;br style=&quot;font-size: 25px;&quot;&gt;&lt;br style=&quot;font-size: 25px;&quot;&gt;&lt;font color=&quot;#000000&quot; style=&quot;background-color: rgb(255, 255, 204); font-size: 25px;&quot;&gt;技术 : (多元化)&lt;/font&gt;&lt;br style=&quot;font-size: 25px;&quot;&gt;1.JDBC&lt;br style=&quot;font-size: 25px;&quot;&gt;2.数据库连接池&lt;br style=&quot;font-size: 25px;&quot;&gt;3.DBUtils&lt;br style=&quot;font-size: 25px;&quot;&gt;4.JdbcTemplate&lt;br style=&quot;font-size: 25px;&quot;&gt;5.MyBatis/MyBatis-Plus&lt;br style=&quot;font-size: 25px;&quot;&gt;..." style="text;html=1;fontSize=25;fontStyle=1;verticalAlign=top;align=left;rounded=0;strokeColor=#666666;fontColor=#333333;fillColor=#DEDEDE;gradientColor=#FFFFFF;" parent="1" vertex="1">
          <mxGeometry x="1560" y="360" width="290" height="520" as="geometry" />
        </mxCell>
        <mxCell id="-EdbTj7FJCB_akA6n4Iw-13" style="edgeStyle=orthogonalEdgeStyle;rounded=0;orthogonalLoop=1;jettySize=auto;html=1;exitX=1;exitY=0.25;exitDx=0;exitDy=0;curved=1;fontSize=25;fontStyle=1;align=left;strokeWidth=2;" parent="1" source="-EdbTj7FJCB_akA6n4Iw-1" target="-EdbTj7FJCB_akA6n4Iw-6" edge="1">
          <mxGeometry relative="1" as="geometry">
            <Array as="points">
              <mxPoint x="750" y="462" />
              <mxPoint x="750" y="396" />
            </Array>
          </mxGeometry>
        </mxCell>
        <mxCell id="-EdbTj7FJCB_akA6n4Iw-14" value="&lt;span style=&quot;font-size: 22px;&quot;&gt;&lt;font style=&quot;font-size: 22px;&quot;&gt;HTTP请求&lt;/font&gt;&lt;/span&gt;" style="edgeLabel;html=1;align=left;verticalAlign=middle;resizable=0;points=[];labelBorderColor=#000000;fontSize=22;fontStyle=1" parent="-EdbTj7FJCB_akA6n4Iw-13" vertex="1" connectable="0">
          <mxGeometry x="0.0652" y="-2" relative="1" as="geometry">
            <mxPoint x="-52" y="17.43" as="offset" />
          </mxGeometry>
        </mxCell>
        <mxCell id="-EdbTj7FJCB_akA6n4Iw-15" style="edgeStyle=orthogonalEdgeStyle;curved=1;rounded=0;orthogonalLoop=1;jettySize=auto;html=1;entryX=1.001;entryY=0.387;entryDx=0;entryDy=0;entryPerimeter=0;fontSize=25;fontStyle=1;align=left;strokeWidth=2;" parent="1" target="-EdbTj7FJCB_akA6n4Iw-12" edge="1">
          <mxGeometry relative="1" as="geometry">
            <mxPoint x="2010" y="633" as="sourcePoint" />
          </mxGeometry>
        </mxCell>
        <mxCell id="-EdbTj7FJCB_akA6n4Iw-16" value="" style="image;html=1;image=img/lib/clip_art/computers/Database_128x128.png;rounded=0;fillColor=#DEDEDE;gradientColor=#FFFFFF;fontSize=25;align=left;fontStyle=1" parent="1" vertex="1">
          <mxGeometry x="2000" y="520" width="130" height="150" as="geometry" />
        </mxCell>
        <mxCell id="-EdbTj7FJCB_akA6n4Iw-17" value="&amp;nbsp; &amp;nbsp; DB :&amp;nbsp;&lt;br style=&quot;font-size: 25px;&quot;&gt;&amp;nbsp; &amp;nbsp; Mysql, Oracle,&amp;nbsp;&lt;br style=&quot;font-size: 25px;&quot;&gt;&amp;nbsp; &amp;nbsp; SQLServer, DB2..." style="text;html=1;fontSize=25;fontStyle=1;verticalAlign=top;align=left;rounded=1;fillColor=#f9f7ed;strokeColor=#36393d;" parent="1" vertex="1">
          <mxGeometry x="1900" y="680" width="240" height="110" as="geometry" />
        </mxCell>
        <mxCell id="-EdbTj7FJCB_akA6n4Iw-55" value="Browser&lt;br style=&quot;font-size: 25px&quot;&gt;&lt;font style=&quot;font-size: 21px&quot;&gt;&lt;font style=&quot;font-size: 21px&quot; color=&quot;#ff306e&quot;&gt;URL—&lt;br&gt;http://IP : port/Web工程路径/资源&lt;/font&gt;&lt;br&gt;&lt;/font&gt;&lt;br style=&quot;font-size: 25px&quot;&gt;1.浏览器将返回的数据进行解析&lt;br style=&quot;font-size: 25px&quot;&gt;，并展示数据。&lt;br style=&quot;font-size: 25px&quot;&gt;2.浏览器端关联到的技术有—&lt;br style=&quot;font-size: 25px&quot;&gt;&amp;nbsp; &amp;nbsp; HTML,CSS,JS,JQuery,&lt;br style=&quot;font-size: 25px&quot;&gt;&amp;nbsp; &amp;nbsp; Vue...等。" style="text;html=1;fontSize=25;fontStyle=1;verticalAlign=top;align=left;rounded=0;fillColor=#f9f7ed;strokeColor=#36393d;" parent="1" vertex="1">
          <mxGeometry x="418" y="1454" width="360" height="330" as="geometry" />
        </mxCell>
        <mxCell id="-EdbTj7FJCB_akA6n4Iw-56" value="&lt;font color=&quot;#ae1eb3&quot;&gt;Web层的&lt;/font&gt;MVC模式" style="text;html=1;fontSize=25;fontStyle=1;verticalAlign=top;align=left;rounded=0;strokeColor=#666666;fontColor=#333333;fillColor=#DEDEDE;gradientColor=#FFFFFF;" parent="1" vertex="1">
          <mxGeometry x="968" y="1289" width="730" height="660" as="geometry" />
        </mxCell>
        <mxCell id="-EdbTj7FJCB_akA6n4Iw-57" style="edgeStyle=orthogonalEdgeStyle;curved=1;rounded=0;orthogonalLoop=1;jettySize=auto;html=1;exitX=0;exitY=0.5;exitDx=0;exitDy=0;entryX=0.859;entryY=0.995;entryDx=0;entryDy=0;strokeWidth=2;fontSize=28;align=left;entryPerimeter=0;" parent="1" source="-EdbTj7FJCB_akA6n4Iw-58" target="-EdbTj7FJCB_akA6n4Iw-70" edge="1">
          <mxGeometry relative="1" as="geometry">
            <mxPoint x="1930.5" y="1509" as="targetPoint" />
          </mxGeometry>
        </mxCell>
        <mxCell id="-EdbTj7FJCB_akA6n4Iw-58" value="" style="image;html=1;image=img/lib/clip_art/computers/Database_128x128.png;rounded=0;fillColor=#DEDEDE;gradientColor=#FFFFFF;fontSize=25;align=left;fontStyle=1" parent="1" vertex="1">
          <mxGeometry x="2028" y="1629" width="130" height="150" as="geometry" />
        </mxCell>
        <mxCell id="-EdbTj7FJCB_akA6n4Iw-59" value="&amp;nbsp; &amp;nbsp; DB :&amp;nbsp;&lt;br style=&quot;font-size: 25px;&quot;&gt;&amp;nbsp; &amp;nbsp; Mysql, Oracle,&amp;nbsp;&lt;br style=&quot;font-size: 25px;&quot;&gt;&amp;nbsp; &amp;nbsp; SQLServer, DB2..." style="text;html=1;fontSize=25;fontStyle=1;verticalAlign=top;align=left;rounded=1;fillColor=#f9f7ed;strokeColor=#36393d;" parent="1" vertex="1">
          <mxGeometry x="1928" y="1789" width="240" height="110" as="geometry" />
        </mxCell>
        <mxCell id="-EdbTj7FJCB_akA6n4Iw-60" value="" style="group" parent="1" vertex="1" connectable="0">
          <mxGeometry x="1058" y="1349" width="320" height="190" as="geometry" />
        </mxCell>
        <mxCell id="-EdbTj7FJCB_akA6n4Iw-61" value="" style="ellipse;whiteSpace=wrap;html=1;rounded=1;strokeWidth=2;fillColor=#b1ddf0;fontSize=22;align=left;strokeColor=#10739e;" parent="-EdbTj7FJCB_akA6n4Iw-60" vertex="1">
          <mxGeometry width="320" height="190" as="geometry" />
        </mxCell>
        <mxCell id="-EdbTj7FJCB_akA6n4Iw-62" value="Controller/控制器(servlet)" style="text;strokeColor=none;fillColor=none;html=1;fontSize=28;fontStyle=1;verticalAlign=middle;align=center;rounded=1;whiteSpace=wrap;" parent="-EdbTj7FJCB_akA6n4Iw-60" vertex="1">
          <mxGeometry x="40" y="30" width="240" height="120" as="geometry" />
        </mxCell>
        <mxCell id="-EdbTj7FJCB_akA6n4Iw-90" value="Cyan_RA9" style="text;strokeColor=none;fillColor=none;html=1;fontSize=25;fontStyle=1;verticalAlign=middle;align=center;textOpacity=25;rotation=-25;" parent="-EdbTj7FJCB_akA6n4Iw-60" vertex="1">
          <mxGeometry x="74.99598758200773" y="71.9985979786743" width="147" height="40" as="geometry" />
        </mxCell>
        <mxCell id="-EdbTj7FJCB_akA6n4Iw-63" value="" style="group" parent="1" vertex="1" connectable="0">
          <mxGeometry x="1378" y="1599" width="320" height="220" as="geometry" />
        </mxCell>
        <mxCell id="-EdbTj7FJCB_akA6n4Iw-64" value="" style="ellipse;whiteSpace=wrap;html=1;rounded=1;strokeWidth=2;fillColor=#b1ddf0;fontSize=22;align=left;strokeColor=#10739e;" parent="-EdbTj7FJCB_akA6n4Iw-63" vertex="1">
          <mxGeometry width="300" height="180" as="geometry" />
        </mxCell>
        <mxCell id="-EdbTj7FJCB_akA6n4Iw-65" value="Model/模型&lt;br&gt;(JavaBean&lt;span style=&quot;background-color: transparent; color: light-dark(rgb(0, 0, 0), rgb(255, 255, 255));&quot;&gt;/&lt;/span&gt;&lt;div&gt;&lt;span style=&quot;background-color: transparent; color: light-dark(rgb(0, 0, 0), rgb(255, 255, 255));&quot;&gt;Service/ Dao)&lt;/span&gt;&lt;/div&gt;" style="text;strokeColor=none;fillColor=none;html=1;fontSize=28;fontStyle=1;verticalAlign=middle;align=center;rounded=1;whiteSpace=wrap;" parent="-EdbTj7FJCB_akA6n4Iw-63" vertex="1">
          <mxGeometry x="30" y="25.26" width="230" height="101.05" as="geometry" />
        </mxCell>
        <mxCell id="-EdbTj7FJCB_akA6n4Iw-91" value="Cyan_RA9" style="text;strokeColor=none;fillColor=none;html=1;fontSize=25;fontStyle=1;verticalAlign=middle;align=center;textOpacity=25;rotation=-25;" parent="-EdbTj7FJCB_akA6n4Iw-63" vertex="1">
          <mxGeometry x="66.99598758200773" y="69.9985979786743" width="147" height="40" as="geometry" />
        </mxCell>
        <mxCell id="-EdbTj7FJCB_akA6n4Iw-66" style="rounded=0;orthogonalLoop=1;jettySize=auto;html=1;exitX=1;exitY=0.75;exitDx=0;exitDy=0;entryX=0.208;entryY=0.047;entryDx=0;entryDy=0;entryPerimeter=0;strokeWidth=3;fontSize=28;align=left;" parent="1" source="-EdbTj7FJCB_akA6n4Iw-62" target="-EdbTj7FJCB_akA6n4Iw-65" edge="1">
          <mxGeometry relative="1" as="geometry" />
        </mxCell>
        <mxCell id="-EdbTj7FJCB_akA6n4Iw-67" style="rounded=0;orthogonalLoop=1;jettySize=auto;html=1;exitX=0;exitY=0.5;exitDx=0;exitDy=0;entryX=0.75;entryY=1;entryDx=0;entryDy=0;strokeWidth=2;fontSize=28;align=left;" parent="1" source="-EdbTj7FJCB_akA6n4Iw-65" target="-EdbTj7FJCB_akA6n4Iw-62" edge="1">
          <mxGeometry relative="1" as="geometry" />
        </mxCell>
        <mxCell id="-EdbTj7FJCB_akA6n4Iw-68" style="edgeStyle=orthogonalEdgeStyle;curved=1;rounded=0;orthogonalLoop=1;jettySize=auto;html=1;entryX=0.5;entryY=0;entryDx=0;entryDy=0;strokeWidth=2;fontSize=28;align=left;" parent="1" source="-EdbTj7FJCB_akA6n4Iw-70" target="-EdbTj7FJCB_akA6n4Iw-58" edge="1">
          <mxGeometry relative="1" as="geometry">
            <mxPoint x="1988" y="1474" as="sourcePoint" />
          </mxGeometry>
        </mxCell>
        <mxCell id="-EdbTj7FJCB_akA6n4Iw-69" style="edgeStyle=orthogonalEdgeStyle;curved=1;rounded=0;orthogonalLoop=1;jettySize=auto;html=1;exitX=0.25;exitY=1;exitDx=0;exitDy=0;entryX=1;entryY=0.5;entryDx=0;entryDy=0;strokeWidth=2;fontSize=28;align=left;" parent="1" source="-EdbTj7FJCB_akA6n4Iw-70" target="-EdbTj7FJCB_akA6n4Iw-64" edge="1">
          <mxGeometry relative="1" as="geometry">
            <Array as="points">
              <mxPoint x="1748" y="1499" />
              <mxPoint x="1748" y="1689" />
            </Array>
          </mxGeometry>
        </mxCell>
        <mxCell id="-EdbTj7FJCB_akA6n4Iw-70" value="Service层/DAO层" style="text;strokeColor=#6c8ebf;fillColor=#dae8fc;html=1;fontSize=28;fontStyle=1;verticalAlign=middle;align=center;rounded=1;whiteSpace=wrap;gradientColor=#0FE7FF;" parent="1" vertex="1">
          <mxGeometry x="1718" y="1379" width="240" height="120" as="geometry" />
        </mxCell>
        <mxCell id="-EdbTj7FJCB_akA6n4Iw-71" style="edgeStyle=orthogonalEdgeStyle;curved=1;rounded=0;orthogonalLoop=1;jettySize=auto;html=1;exitX=1;exitY=0.25;exitDx=0;exitDy=0;entryX=0;entryY=0.25;entryDx=0;entryDy=0;strokeWidth=2;fontSize=28;align=left;" parent="1" source="-EdbTj7FJCB_akA6n4Iw-65" target="-EdbTj7FJCB_akA6n4Iw-70" edge="1">
          <mxGeometry relative="1" as="geometry" />
        </mxCell>
        <mxCell id="-EdbTj7FJCB_akA6n4Iw-72" style="rounded=0;orthogonalLoop=1;jettySize=auto;html=1;exitX=1;exitY=0.25;exitDx=0;exitDy=0;fontSize=25;fontStyle=1;align=left;strokeWidth=2;entryX=0;entryY=0.25;entryDx=0;entryDy=0;" parent="1" source="-EdbTj7FJCB_akA6n4Iw-55" target="-EdbTj7FJCB_akA6n4Iw-62" edge="1">
          <mxGeometry relative="1" as="geometry">
            <mxPoint x="978" y="1519" as="targetPoint" />
          </mxGeometry>
        </mxCell>
        <mxCell id="-EdbTj7FJCB_akA6n4Iw-73" value="&lt;span style=&quot;font-size: 25px;&quot;&gt;&lt;font style=&quot;font-size: 25px;&quot;&gt;HTTP请求&lt;/font&gt;&lt;/span&gt;" style="edgeLabel;html=1;align=left;verticalAlign=middle;resizable=0;points=[];labelBorderColor=#000000;fontSize=25;fontStyle=1" parent="-EdbTj7FJCB_akA6n4Iw-72" vertex="1" connectable="0">
          <mxGeometry x="0.0652" y="-2" relative="1" as="geometry">
            <mxPoint x="-90.61" y="-0.5300000000000047" as="offset" />
          </mxGeometry>
        </mxCell>
        <mxCell id="-EdbTj7FJCB_akA6n4Iw-74" value="" style="group" parent="1" vertex="1" connectable="0">
          <mxGeometry x="988" y="1729" width="320" height="190" as="geometry" />
        </mxCell>
        <mxCell id="-EdbTj7FJCB_akA6n4Iw-75" value="" style="ellipse;whiteSpace=wrap;html=1;rounded=1;strokeWidth=2;fillColor=#b1ddf0;fontSize=22;align=left;strokeColor=#10739e;" parent="-EdbTj7FJCB_akA6n4Iw-74" vertex="1">
          <mxGeometry width="320" height="190" as="geometry" />
        </mxCell>
        <mxCell id="-EdbTj7FJCB_akA6n4Iw-76" value="View/视图&lt;br&gt;(HTML, CSS，Vue...)" style="text;strokeColor=none;fillColor=none;html=1;fontSize=28;fontStyle=1;verticalAlign=middle;align=center;rounded=1;whiteSpace=wrap;" parent="-EdbTj7FJCB_akA6n4Iw-74" vertex="1">
          <mxGeometry x="20" y="30" width="290" height="120" as="geometry" />
        </mxCell>
        <mxCell id="-EdbTj7FJCB_akA6n4Iw-77" style="rounded=0;orthogonalLoop=1;jettySize=auto;html=1;entryX=0.424;entryY=-0.029;entryDx=0;entryDy=0;entryPerimeter=0;strokeWidth=3;fontSize=28;align=left;" parent="1" source="-EdbTj7FJCB_akA6n4Iw-61" target="-EdbTj7FJCB_akA6n4Iw-76" edge="1">
          <mxGeometry relative="1" as="geometry" />
        </mxCell>
        <mxCell id="-EdbTj7FJCB_akA6n4Iw-78" value="&lt;b&gt;&lt;font color=&quot;#1f8066&quot;&gt;Data&lt;/font&gt;&lt;/b&gt;" style="edgeLabel;html=1;align=center;verticalAlign=middle;resizable=0;points=[];fontSize=28;" parent="-EdbTj7FJCB_akA6n4Iw-77" vertex="1" connectable="0">
          <mxGeometry x="-0.3623" y="-24" relative="1" as="geometry">
            <mxPoint x="9.26" y="37.79" as="offset" />
          </mxGeometry>
        </mxCell>
        <mxCell id="-EdbTj7FJCB_akA6n4Iw-79" style="rounded=0;orthogonalLoop=1;jettySize=auto;html=1;exitX=0;exitY=0.75;exitDx=0;exitDy=0;entryX=1;entryY=0.75;entryDx=0;entryDy=0;fontSize=25;fontStyle=1;align=left;strokeWidth=2;" parent="1" source="-EdbTj7FJCB_akA6n4Iw-76" target="-EdbTj7FJCB_akA6n4Iw-55" edge="1">
          <mxGeometry relative="1" as="geometry" />
        </mxCell>
        <mxCell id="-EdbTj7FJCB_akA6n4Iw-80" value="HTTP响应" style="edgeLabel;html=1;align=left;verticalAlign=middle;resizable=0;points=[];fontSize=25;labelBorderColor=#000000;fontStyle=1" parent="-EdbTj7FJCB_akA6n4Iw-79" vertex="1" connectable="0">
          <mxGeometry x="0.2652" y="8" relative="1" as="geometry">
            <mxPoint x="-32.760000000000005" y="14.479999999999999" as="offset" />
          </mxGeometry>
        </mxCell>
        <mxCell id="-EdbTj7FJCB_akA6n4Iw-81" value="Cyan_RA9" style="text;strokeColor=none;fillColor=none;html=1;fontSize=25;fontStyle=1;verticalAlign=middle;align=center;textOpacity=30;rotation=-25;" parent="1" vertex="1">
          <mxGeometry x="472" y="518" width="147" height="40" as="geometry" />
        </mxCell>
        <mxCell id="-EdbTj7FJCB_akA6n4Iw-84" value="Cyan_RA9" style="text;strokeColor=none;fillColor=none;html=1;fontSize=25;fontStyle=1;verticalAlign=middle;align=center;textOpacity=25;rotation=-25;" parent="1" vertex="1">
          <mxGeometry x="1232.9959875820077" y="634.9985979786743" width="147" height="40" as="geometry" />
        </mxCell>
        <mxCell id="-EdbTj7FJCB_akA6n4Iw-85" value="Cyan_RA9" style="text;strokeColor=none;fillColor=none;html=1;fontSize=25;fontStyle=1;verticalAlign=middle;align=center;textOpacity=25;rotation=-25;" parent="1" vertex="1">
          <mxGeometry x="1567.9959875820077" y="599.9985979786743" width="147" height="40" as="geometry" />
        </mxCell>
        <mxCell id="-EdbTj7FJCB_akA6n4Iw-86" value="Cyan_RA9" style="text;strokeColor=none;fillColor=none;html=1;fontSize=25;fontStyle=1;verticalAlign=middle;align=center;textOpacity=25;rotation=-25;" parent="1" vertex="1">
          <mxGeometry x="1891.9959875820077" y="687.9985979786743" width="147" height="40" as="geometry" />
        </mxCell>
        <mxCell id="-EdbTj7FJCB_akA6n4Iw-87" value="Cyan_RA9" style="text;strokeColor=none;fillColor=none;html=1;fontSize=25;fontStyle=1;verticalAlign=middle;align=center;textOpacity=25;rotation=-25;" parent="1" vertex="1">
          <mxGeometry x="866.9959875820076" y="771.9985979786743" width="147" height="40" as="geometry" />
        </mxCell>
        <mxCell id="-EdbTj7FJCB_akA6n4Iw-88" value="Cyan_RA9" style="text;strokeColor=none;fillColor=none;html=1;fontSize=25;fontStyle=1;verticalAlign=middle;align=center;textOpacity=25;rotation=-25;" parent="1" vertex="1">
          <mxGeometry x="1248.995987582008" y="362.99859797867435" width="147" height="40" as="geometry" />
        </mxCell>
        <mxCell id="-EdbTj7FJCB_akA6n4Iw-92" value="Cyan_RA9" style="text;strokeColor=none;fillColor=none;html=1;fontSize=25;fontStyle=1;verticalAlign=middle;align=center;textOpacity=25;rotation=-25;" parent="1" vertex="1">
          <mxGeometry x="1744.9959875820077" y="1404.9985979786743" width="147" height="40" as="geometry" />
        </mxCell>
        <mxCell id="-EdbTj7FJCB_akA6n4Iw-93" value="Cyan_RA9" style="text;strokeColor=none;fillColor=none;html=1;fontSize=25;fontStyle=1;verticalAlign=middle;align=center;textOpacity=25;rotation=-25;" parent="1" vertex="1">
          <mxGeometry x="1996.9959875820077" y="1710.9985979786743" width="147" height="40" as="geometry" />
        </mxCell>
        <mxCell id="-EdbTj7FJCB_akA6n4Iw-95" value="Cyan_RA9" style="text;strokeColor=none;fillColor=none;html=1;fontSize=25;fontStyle=1;verticalAlign=middle;align=center;textOpacity=30;rotation=-25;" parent="1" vertex="1">
          <mxGeometry x="464.99598758200784" y="1512.9985979786743" width="147" height="40" as="geometry" />
        </mxCell>
        <mxCell id="v9iiZSDOCLwyM3xsL_51-1" value="Java后端三层架构图" style="text;html=1;fontSize=35;fontStyle=1;verticalAlign=middle;align=center;rounded=0;fillColor=#cdeb8b;strokeColor=#36393d;sketch=1;curveFitting=1;jiggle=2;" vertex="1" parent="1">
          <mxGeometry x="296" y="133" width="446" height="84" as="geometry" />
        </mxCell>
        <mxCell id="v9iiZSDOCLwyM3xsL_51-3" value="MVC模式示意图" style="text;html=1;fontSize=35;fontStyle=1;verticalAlign=middle;align=center;rounded=0;fillColor=#cdeb8b;strokeColor=#36393d;sketch=1;curveFitting=1;jiggle=2;" vertex="1" parent="1">
          <mxGeometry x="382" y="1086" width="446" height="84" as="geometry" />
        </mxCell>
        <mxCell id="v9iiZSDOCLwyM3xsL_51-5" value="" style="verticalLabelPosition=bottom;sketch=0;aspect=fixed;html=1;verticalAlign=top;strokeColor=none;align=center;outlineConnect=0;shape=mxgraph.citrix.browser;strokeWidth=4;" vertex="1" parent="1">
          <mxGeometry x="388" y="2856" width="117.93" height="180" as="geometry" />
        </mxCell>
        <mxCell id="v9iiZSDOCLwyM3xsL_51-6" value="浏览器" style="text;html=1;fontSize=25;fontStyle=1;verticalAlign=middle;align=center;rounded=1;fillColor=#f9f7ed;strokeColor=#36393d;" vertex="1" parent="1">
          <mxGeometry x="396.96" y="3051" width="100" height="51" as="geometry" />
        </mxCell>
        <mxCell id="v9iiZSDOCLwyM3xsL_51-22" style="edgeStyle=orthogonalEdgeStyle;rounded=0;orthogonalLoop=1;jettySize=auto;html=1;exitX=0.25;exitY=0;exitDx=0;exitDy=0;exitPerimeter=0;entryX=0.25;entryY=1;entryDx=0;entryDy=0;curved=1;strokeWidth=3;" edge="1" parent="1" source="v9iiZSDOCLwyM3xsL_51-7" target="v9iiZSDOCLwyM3xsL_51-19">
          <mxGeometry relative="1" as="geometry" />
        </mxCell>
        <mxCell id="v9iiZSDOCLwyM3xsL_51-79" style="edgeStyle=orthogonalEdgeStyle;rounded=0;orthogonalLoop=1;jettySize=auto;html=1;strokeWidth=3;curved=1;" edge="1" parent="1" target="v9iiZSDOCLwyM3xsL_51-78">
          <mxGeometry relative="1" as="geometry">
            <mxPoint x="801" y="3048" as="sourcePoint" />
            <Array as="points">
              <mxPoint x="550" y="3062" />
            </Array>
          </mxGeometry>
        </mxCell>
        <mxCell id="v9iiZSDOCLwyM3xsL_51-7" value="" style="fillColor=#c0f5a9;dashed=0;outlineConnect=0;strokeWidth=2;html=1;align=center;fontSize=8;verticalLabelPosition=bottom;verticalAlign=top;shape=mxgraph.eip.message_dispatcher;" vertex="1" parent="1">
          <mxGeometry x="802" y="2826" width="417" height="273" as="geometry" />
        </mxCell>
        <mxCell id="v9iiZSDOCLwyM3xsL_51-8" value="前端控制器 / 中央控制器 / 分发控制器" style="text;html=1;fontSize=25;fontStyle=1;verticalAlign=middle;align=center;rounded=1;fillColor=#f9f7ed;strokeColor=#36393d;" vertex="1" parent="1">
          <mxGeometry x="791" y="3114" width="439" height="51" as="geometry" />
        </mxCell>
        <mxCell id="v9iiZSDOCLwyM3xsL_51-9" value="DispatcherServlet" style="text;strokeColor=none;fillColor=none;html=1;fontSize=35;fontStyle=5;verticalAlign=middle;align=center;fontColor=#B658D9;shadow=1;" vertex="1" parent="1">
          <mxGeometry x="811" y="2832" width="299" height="39" as="geometry" />
        </mxCell>
        <mxCell id="v9iiZSDOCLwyM3xsL_51-10" style="edgeStyle=orthogonalEdgeStyle;rounded=0;orthogonalLoop=1;jettySize=auto;html=1;entryX=0;entryY=0.25;entryDx=0;entryDy=0;entryPerimeter=0;exitX=1.028;exitY=0.327;exitDx=0;exitDy=0;exitPerimeter=0;curved=1;strokeWidth=3;" edge="1" parent="1" source="v9iiZSDOCLwyM3xsL_51-5" target="v9iiZSDOCLwyM3xsL_51-7">
          <mxGeometry relative="1" as="geometry" />
        </mxCell>
        <mxCell id="v9iiZSDOCLwyM3xsL_51-12" value="1-使用URL&lt;div&gt;发出HTTP请求&lt;/div&gt;" style="edgeLabel;html=1;align=center;verticalAlign=middle;resizable=0;points=[];fontSize=25;labelBorderColor=default;fontStyle=1" vertex="1" connectable="0" parent="v9iiZSDOCLwyM3xsL_51-10">
          <mxGeometry x="-0.3194" y="5" relative="1" as="geometry">
            <mxPoint x="26" y="-3" as="offset" />
          </mxGeometry>
        </mxCell>
        <mxCell id="v9iiZSDOCLwyM3xsL_51-14" value="Cyan_RA9" style="text;strokeColor=none;fillColor=none;html=1;fontSize=25;fontStyle=1;verticalAlign=middle;align=center;rounded=0;shadow=1;sketch=0;rotation=-15;textOpacity=20;" vertex="1" parent="1">
          <mxGeometry x="363" y="2887" width="150.36" height="35.09" as="geometry" />
        </mxCell>
        <mxCell id="v9iiZSDOCLwyM3xsL_51-16" value="Cyan_RA9" style="text;strokeColor=none;fillColor=none;html=1;fontSize=25;fontStyle=1;verticalAlign=middle;align=center;rounded=0;shadow=1;sketch=0;rotation=-15;textOpacity=20;" vertex="1" parent="1">
          <mxGeometry x="937.9992837667359" y="2932.000184433049" width="150.36" height="35.09" as="geometry" />
        </mxCell>
        <mxCell id="v9iiZSDOCLwyM3xsL_51-17" value="Cyan_RA9" style="text;strokeColor=none;fillColor=none;html=1;fontSize=25;fontStyle=1;verticalAlign=middle;align=center;rounded=0;shadow=1;sketch=0;rotation=-15;textOpacity=20;" vertex="1" parent="1">
          <mxGeometry x="1049.639283766736" y="3015.9101844330494" width="150.36" height="35.09" as="geometry" />
        </mxCell>
        <mxCell id="v9iiZSDOCLwyM3xsL_51-31" style="rounded=0;orthogonalLoop=1;jettySize=auto;html=1;shape=link;endArrow=none;endFill=0;strokeWidth=1;width=7.647058823529413;" edge="1" parent="1" source="v9iiZSDOCLwyM3xsL_51-19" target="v9iiZSDOCLwyM3xsL_51-28">
          <mxGeometry relative="1" as="geometry" />
        </mxCell>
        <mxCell id="v9iiZSDOCLwyM3xsL_51-19" value="HandlerMapping" style="text;html=1;fontSize=30;fontStyle=1;verticalAlign=middle;align=center;rounded=0;fillColor=#eeeeee;strokeColor=#36393d;" vertex="1" parent="1">
          <mxGeometry x="855" y="2550" width="270" height="141" as="geometry" />
        </mxCell>
        <mxCell id="v9iiZSDOCLwyM3xsL_51-21" value="" style="shape=mxgraph.signs.healthcare.brain;html=1;pointerEvents=1;fillColor=#000000;strokeColor=none;verticalLabelPosition=bottom;verticalAlign=top;align=center;" vertex="1" parent="1">
          <mxGeometry x="819" y="2877" width="98" height="85" as="geometry" />
        </mxCell>
        <mxCell id="v9iiZSDOCLwyM3xsL_51-23" value="2-调用&lt;div&gt;处理器映射器&lt;/div&gt;" style="edgeLabel;html=1;align=center;verticalAlign=middle;resizable=0;points=[];fontSize=25;labelBorderColor=default;fontStyle=1" vertex="1" connectable="0" parent="1">
          <mxGeometry x="908" y="2765" as="geometry">
            <mxPoint x="-10" y="-6" as="offset" />
          </mxGeometry>
        </mxCell>
        <mxCell id="v9iiZSDOCLwyM3xsL_51-24" value="处&lt;div&gt;理&lt;/div&gt;&lt;div&gt;器&lt;/div&gt;&lt;div&gt;映&lt;/div&gt;&lt;div&gt;射&lt;/div&gt;&lt;div&gt;器&lt;/div&gt;" style="text;html=1;fontSize=23;fontStyle=1;verticalAlign=middle;align=center;rounded=1;fillColor=#f9f7ed;strokeColor=#36393d;" vertex="1" parent="1">
          <mxGeometry x="797" y="2544.8" width="40" height="169.5" as="geometry" />
        </mxCell>
        <mxCell id="v9iiZSDOCLwyM3xsL_51-25" value="Cyan_RA9" style="text;strokeColor=none;fillColor=none;html=1;fontSize=25;fontStyle=1;verticalAlign=middle;align=center;rounded=0;shadow=1;sketch=0;rotation=-15;textOpacity=20;" vertex="1" parent="1">
          <mxGeometry x="914.819283766736" y="2590.000184433049" width="150.36" height="35.09" as="geometry" />
        </mxCell>
        <mxCell id="v9iiZSDOCLwyM3xsL_51-26" style="edgeStyle=orthogonalEdgeStyle;rounded=0;orthogonalLoop=1;jettySize=auto;html=1;exitX=0.75;exitY=1;exitDx=0;exitDy=0;entryX=0.75;entryY=0;entryDx=0;entryDy=0;entryPerimeter=0;curved=1;strokeWidth=3;" edge="1" parent="1" source="v9iiZSDOCLwyM3xsL_51-19" target="v9iiZSDOCLwyM3xsL_51-7">
          <mxGeometry relative="1" as="geometry" />
        </mxCell>
        <mxCell id="v9iiZSDOCLwyM3xsL_51-27" value="3-返回&lt;span style=&quot;background-color: light-dark(#ffffff, var(--ge-dark-color, #121212)); color: light-dark(rgb(0, 0, 0), rgb(255, 255, 255));&quot;&gt;处理器&lt;/span&gt;&lt;div&gt;&lt;span style=&quot;background-color: light-dark(#ffffff, var(--ge-dark-color, #121212)); color: light-dark(rgb(0, 0, 0), rgb(255, 255, 255));&quot;&gt;执行链&lt;/span&gt;&lt;/div&gt;" style="edgeLabel;html=1;align=center;verticalAlign=middle;resizable=0;points=[];fontSize=25;labelBorderColor=default;fontStyle=1" vertex="1" connectable="0" parent="1">
          <mxGeometry x="1100" y="2758" as="geometry">
            <mxPoint x="-10" y="-6" as="offset" />
          </mxGeometry>
        </mxCell>
        <mxCell id="v9iiZSDOCLwyM3xsL_51-28" value="HandlerExecutionChain&lt;div&gt;（处理器执行链，类比Filter链）&lt;/div&gt;&lt;div&gt;包括HandlerInterceptor（拦截器）&lt;/div&gt;&lt;div&gt;[拦截器可能有多个]&lt;/div&gt;&lt;div&gt;和Handler（处理器）&lt;/div&gt;" style="text;html=1;fontSize=26;fontStyle=1;verticalAlign=middle;align=center;rounded=0;fillColor=#ffff88;strokeColor=#36393d;opacity=80;dashed=1;strokeWidth=2;" vertex="1" parent="1">
          <mxGeometry x="1230" y="2589" width="420" height="169" as="geometry" />
        </mxCell>
        <mxCell id="v9iiZSDOCLwyM3xsL_51-33" value="Cyan_RA9" style="text;strokeColor=none;fillColor=none;html=1;fontSize=25;fontStyle=1;verticalAlign=middle;align=center;rounded=0;shadow=1;sketch=0;rotation=-15;textOpacity=20;" vertex="1" parent="1">
          <mxGeometry x="1503.999283766736" y="2612.000184433049" width="150.36" height="35.09" as="geometry" />
        </mxCell>
        <mxCell id="v9iiZSDOCLwyM3xsL_51-34" value="Cyan_RA9" style="text;strokeColor=none;fillColor=none;html=1;fontSize=25;fontStyle=1;verticalAlign=middle;align=center;rounded=0;shadow=1;sketch=0;rotation=-15;textOpacity=20;" vertex="1" parent="1">
          <mxGeometry x="1257.819283766736" y="2674.000184433049" width="150.36" height="35.09" as="geometry" />
        </mxCell>
        <mxCell id="v9iiZSDOCLwyM3xsL_51-44" style="edgeStyle=orthogonalEdgeStyle;rounded=0;orthogonalLoop=1;jettySize=auto;html=1;strokeWidth=3;" edge="1" parent="1" source="v9iiZSDOCLwyM3xsL_51-37" target="v9iiZSDOCLwyM3xsL_51-45">
          <mxGeometry relative="1" as="geometry">
            <mxPoint x="1710.555523633957" y="3236.3529411764703" as="targetPoint" />
            <mxPoint x="1834" y="2902" as="sourcePoint" />
            <Array as="points">
              <mxPoint x="1847" y="2936" />
            </Array>
          </mxGeometry>
        </mxCell>
        <mxCell id="v9iiZSDOCLwyM3xsL_51-37" value="" style="shape=mxgraph.cisco.computers_and_peripherals.pc_adapter_card;html=1;pointerEvents=1;dashed=0;fillColor=#0371A5;strokeColor=#ffffff;strokeWidth=2;verticalLabelPosition=bottom;verticalAlign=top;align=center;outlineConnect=0;" vertex="1" parent="1">
          <mxGeometry x="1589" y="2836" width="156" height="187" as="geometry" />
        </mxCell>
        <mxCell id="v9iiZSDOCLwyM3xsL_51-38" style="edgeStyle=orthogonalEdgeStyle;rounded=0;orthogonalLoop=1;jettySize=auto;html=1;exitX=1;exitY=0.25;exitDx=0;exitDy=0;exitPerimeter=0;entryX=-0.009;entryY=0.208;entryDx=0;entryDy=0;entryPerimeter=0;curved=1;strokeWidth=3;" edge="1" parent="1" source="v9iiZSDOCLwyM3xsL_51-7" target="v9iiZSDOCLwyM3xsL_51-37">
          <mxGeometry relative="1" as="geometry" />
        </mxCell>
        <mxCell id="v9iiZSDOCLwyM3xsL_51-40" value="处理器适配器 (HandlerAdapter)" style="text;html=1;fontSize=25;fontStyle=1;verticalAlign=middle;align=center;rounded=1;fillColor=#f9f7ed;strokeColor=#36393d;" vertex="1" parent="1">
          <mxGeometry x="1415" y="3036" width="372" height="51" as="geometry" />
        </mxCell>
        <mxCell id="v9iiZSDOCLwyM3xsL_51-42" value="4-调用&lt;div&gt;处理器适配器&lt;/div&gt;" style="edgeLabel;html=1;align=center;verticalAlign=middle;resizable=0;points=[];fontSize=25;labelBorderColor=default;fontStyle=1" vertex="1" connectable="0" parent="1">
          <mxGeometry x="1384" y="2897" as="geometry">
            <mxPoint x="-10" y="-6" as="offset" />
          </mxGeometry>
        </mxCell>
        <mxCell id="v9iiZSDOCLwyM3xsL_51-43" value="Cyan_RA9" style="text;strokeColor=none;fillColor=none;html=1;fontSize=25;fontStyle=1;verticalAlign=middle;align=center;rounded=0;shadow=1;sketch=0;rotation=-15;textOpacity=20;" vertex="1" parent="1">
          <mxGeometry x="1534.999283766736" y="2922.090184433049" width="150.36" height="35.09" as="geometry" />
        </mxCell>
        <mxCell id="v9iiZSDOCLwyM3xsL_51-51" style="edgeStyle=orthogonalEdgeStyle;rounded=0;orthogonalLoop=1;jettySize=auto;html=1;exitX=0;exitY=0.25;exitDx=0;exitDy=0;entryX=1;entryY=0.25;entryDx=0;entryDy=0;strokeWidth=3;" edge="1" parent="1" source="v9iiZSDOCLwyM3xsL_51-45" target="v9iiZSDOCLwyM3xsL_51-46">
          <mxGeometry relative="1" as="geometry" />
        </mxCell>
        <mxCell id="v9iiZSDOCLwyM3xsL_51-45" value="Handler（处理器），&lt;div&gt;即 Controller（控制器）&lt;/div&gt;" style="text;html=1;fontSize=26;fontStyle=1;verticalAlign=middle;align=center;rounded=0;fillColor=#dae8fc;strokeColor=#6c8ebf;" vertex="1" parent="1">
          <mxGeometry x="1693.68" y="3157" width="298" height="108" as="geometry" />
        </mxCell>
        <mxCell id="v9iiZSDOCLwyM3xsL_51-52" style="edgeStyle=orthogonalEdgeStyle;rounded=0;orthogonalLoop=1;jettySize=auto;html=1;exitX=0;exitY=0.25;exitDx=0;exitDy=0;entryX=1;entryY=0.25;entryDx=0;entryDy=0;strokeWidth=3;" edge="1" parent="1" source="v9iiZSDOCLwyM3xsL_51-46" target="v9iiZSDOCLwyM3xsL_51-48">
          <mxGeometry relative="1" as="geometry" />
        </mxCell>
        <mxCell id="v9iiZSDOCLwyM3xsL_51-59" style="edgeStyle=orthogonalEdgeStyle;rounded=0;orthogonalLoop=1;jettySize=auto;html=1;exitX=1;exitY=0.75;exitDx=0;exitDy=0;entryX=0;entryY=0.75;entryDx=0;entryDy=0;strokeWidth=3;" edge="1" parent="1" source="v9iiZSDOCLwyM3xsL_51-46" target="v9iiZSDOCLwyM3xsL_51-45">
          <mxGeometry relative="1" as="geometry" />
        </mxCell>
        <mxCell id="v9iiZSDOCLwyM3xsL_51-46" value="Service" style="text;html=1;fontSize=25;fontStyle=1;verticalAlign=middle;align=center;rounded=0;fillColor=#dae8fc;strokeColor=#6c8ebf;" vertex="1" parent="1">
          <mxGeometry x="1512.68" y="3157" width="121" height="108" as="geometry" />
        </mxCell>
        <mxCell id="v9iiZSDOCLwyM3xsL_51-58" style="edgeStyle=orthogonalEdgeStyle;rounded=0;orthogonalLoop=1;jettySize=auto;html=1;exitX=1;exitY=0.75;exitDx=0;exitDy=0;entryX=0;entryY=0.75;entryDx=0;entryDy=0;strokeWidth=3;" edge="1" parent="1" source="v9iiZSDOCLwyM3xsL_51-48" target="v9iiZSDOCLwyM3xsL_51-46">
          <mxGeometry relative="1" as="geometry" />
        </mxCell>
        <mxCell id="v9iiZSDOCLwyM3xsL_51-48" value="DAO" style="text;html=1;fontSize=25;fontStyle=1;verticalAlign=middle;align=center;rounded=0;fillColor=#dae8fc;strokeColor=#6c8ebf;" vertex="1" parent="1">
          <mxGeometry x="1330.68" y="3157" width="121" height="108" as="geometry" />
        </mxCell>
        <mxCell id="v9iiZSDOCLwyM3xsL_51-55" style="rounded=0;orthogonalLoop=1;jettySize=auto;html=1;exitX=0.85;exitY=0.05;exitDx=0;exitDy=0;exitPerimeter=0;entryX=0.75;entryY=1;entryDx=0;entryDy=0;strokeWidth=3;" edge="1" parent="1" source="v9iiZSDOCLwyM3xsL_51-54" target="v9iiZSDOCLwyM3xsL_51-48">
          <mxGeometry relative="1" as="geometry" />
        </mxCell>
        <mxCell id="v9iiZSDOCLwyM3xsL_51-54" value="&lt;font style=&quot;font-size: 30px;&quot;&gt;&lt;b&gt;DB&lt;/b&gt;&lt;/font&gt;" style="shape=datastore;whiteSpace=wrap;html=1;fillColor=#dae8fc;gradientColor=#7ea6e0;strokeColor=#6c8ebf;shadow=1;strokeWidth=2;" vertex="1" parent="1">
          <mxGeometry x="1336.18" y="3306" width="110" height="108" as="geometry" />
        </mxCell>
        <mxCell id="v9iiZSDOCLwyM3xsL_51-57" style="rounded=0;orthogonalLoop=1;jettySize=auto;html=1;exitX=0.25;exitY=1;exitDx=0;exitDy=0;entryX=0.15;entryY=0.05;entryDx=0;entryDy=0;entryPerimeter=0;strokeWidth=3;" edge="1" parent="1" source="v9iiZSDOCLwyM3xsL_51-48" target="v9iiZSDOCLwyM3xsL_51-54">
          <mxGeometry relative="1" as="geometry" />
        </mxCell>
        <mxCell id="v9iiZSDOCLwyM3xsL_51-60" value="Cyan_RA9" style="text;strokeColor=none;fillColor=none;html=1;fontSize=25;fontStyle=1;verticalAlign=middle;align=center;rounded=0;shadow=1;sketch=0;rotation=-15;textOpacity=20;" vertex="1" parent="1">
          <mxGeometry x="1349.679283766736" y="3189.000184433049" width="150.36" height="35.09" as="geometry" />
        </mxCell>
        <mxCell id="v9iiZSDOCLwyM3xsL_51-61" value="Cyan_RA9" style="text;strokeColor=none;fillColor=none;html=1;fontSize=25;fontStyle=1;verticalAlign=middle;align=center;rounded=0;shadow=1;sketch=0;rotation=-15;textOpacity=20;" vertex="1" parent="1">
          <mxGeometry x="1859.679283766736" y="3180.000184433049" width="150.36" height="35.09" as="geometry" />
        </mxCell>
        <mxCell id="v9iiZSDOCLwyM3xsL_51-62" value="Cyan_RA9" style="text;strokeColor=none;fillColor=none;html=1;fontSize=25;fontStyle=1;verticalAlign=middle;align=center;rounded=0;shadow=1;sketch=0;rotation=-15;textOpacity=25;" vertex="1" parent="1">
          <mxGeometry x="1315.9992837667362" y="3323.000184433049" width="150.36" height="35.09" as="geometry" />
        </mxCell>
        <mxCell id="v9iiZSDOCLwyM3xsL_51-63" value="5-处理器适配器&lt;div&gt;调用Handler&lt;/div&gt;" style="edgeLabel;html=1;align=center;verticalAlign=middle;resizable=0;points=[];fontSize=25;labelBorderColor=default;fontStyle=1" vertex="1" connectable="0" parent="1">
          <mxGeometry x="1880" y="2988" as="geometry">
            <mxPoint x="-10" y="-6" as="offset" />
          </mxGeometry>
        </mxCell>
        <mxCell id="v9iiZSDOCLwyM3xsL_51-64" style="edgeStyle=orthogonalEdgeStyle;rounded=0;orthogonalLoop=1;jettySize=auto;html=1;exitX=0;exitY=0.75;exitDx=0;exitDy=0;exitPerimeter=0;entryX=1.058;entryY=0.787;entryDx=0;entryDy=0;entryPerimeter=0;curved=1;strokeWidth=3;" edge="1" parent="1" source="v9iiZSDOCLwyM3xsL_51-7" target="v9iiZSDOCLwyM3xsL_51-5">
          <mxGeometry relative="1" as="geometry" />
        </mxCell>
        <mxCell id="v9iiZSDOCLwyM3xsL_51-65" style="edgeStyle=orthogonalEdgeStyle;rounded=0;orthogonalLoop=1;jettySize=auto;html=1;entryX=1.045;entryY=0.179;entryDx=0;entryDy=0;entryPerimeter=0;strokeWidth=3;exitX=1;exitY=0.5;exitDx=0;exitDy=0;" edge="1" parent="1" source="v9iiZSDOCLwyM3xsL_51-45" target="v9iiZSDOCLwyM3xsL_51-37">
          <mxGeometry relative="1" as="geometry">
            <Array as="points">
              <mxPoint x="2059" y="3211" />
              <mxPoint x="2059" y="2869" />
            </Array>
          </mxGeometry>
        </mxCell>
        <mxCell id="v9iiZSDOCLwyM3xsL_51-66" value="6-处理器返回&lt;div&gt;ModelAndView&lt;/div&gt;" style="edgeLabel;html=1;align=center;verticalAlign=middle;resizable=0;points=[];fontSize=25;labelBorderColor=default;fontStyle=1" vertex="1" connectable="0" parent="1">
          <mxGeometry x="1950" y="2871" as="geometry">
            <mxPoint x="-17" y="-16" as="offset" />
          </mxGeometry>
        </mxCell>
        <mxCell id="v9iiZSDOCLwyM3xsL_51-68" style="edgeStyle=orthogonalEdgeStyle;rounded=0;orthogonalLoop=1;jettySize=auto;html=1;entryX=1;entryY=0.75;entryDx=0;entryDy=0;entryPerimeter=0;curved=1;exitX=-0.029;exitY=0.756;exitDx=0;exitDy=0;exitPerimeter=0;strokeWidth=3;" edge="1" parent="1" source="v9iiZSDOCLwyM3xsL_51-37" target="v9iiZSDOCLwyM3xsL_51-7">
          <mxGeometry relative="1" as="geometry" />
        </mxCell>
        <mxCell id="v9iiZSDOCLwyM3xsL_51-69" value="7-返回&lt;div&gt;ModelAndView&lt;/div&gt;" style="edgeLabel;html=1;align=center;verticalAlign=middle;resizable=0;points=[];fontSize=25;labelBorderColor=default;fontStyle=1" vertex="1" connectable="0" parent="1">
          <mxGeometry x="1408.18" y="2988" as="geometry">
            <mxPoint x="-10" y="-6" as="offset" />
          </mxGeometry>
        </mxCell>
        <mxCell id="v9iiZSDOCLwyM3xsL_51-70" value="视图解析器&lt;div&gt;（InternalResourceViewResolver）&lt;/div&gt;" style="text;html=1;fontSize=30;fontStyle=1;verticalAlign=middle;align=center;rounded=0;fillColor=#eeeeee;strokeColor=#36393d;" vertex="1" parent="1">
          <mxGeometry x="729" y="3306" width="544.46" height="128" as="geometry" />
        </mxCell>
        <mxCell id="v9iiZSDOCLwyM3xsL_51-71" style="edgeStyle=orthogonalEdgeStyle;rounded=0;orthogonalLoop=1;jettySize=auto;html=1;exitX=1;exitY=1;exitDx=0;exitDy=0;exitPerimeter=0;entryX=0.75;entryY=0;entryDx=0;entryDy=0;curved=1;strokeWidth=3;" edge="1" parent="1" source="v9iiZSDOCLwyM3xsL_51-7" target="v9iiZSDOCLwyM3xsL_51-70">
          <mxGeometry relative="1" as="geometry">
            <Array as="points">
              <mxPoint x="1259" y="3099" />
              <mxPoint x="1259" y="3241" />
              <mxPoint x="1137" y="3241" />
            </Array>
          </mxGeometry>
        </mxCell>
        <mxCell id="v9iiZSDOCLwyM3xsL_51-72" style="edgeStyle=orthogonalEdgeStyle;rounded=0;orthogonalLoop=1;jettySize=auto;html=1;exitX=0.158;exitY=0.02;exitDx=0;exitDy=0;curved=1;strokeWidth=3;exitPerimeter=0;" edge="1" parent="1" source="v9iiZSDOCLwyM3xsL_51-70">
          <mxGeometry relative="1" as="geometry">
            <mxPoint x="800" y="3085" as="targetPoint" />
            <Array as="points">
              <mxPoint x="815" y="3257" />
              <mxPoint x="745" y="3257" />
              <mxPoint x="745" y="3086" />
              <mxPoint x="800" y="3086" />
            </Array>
          </mxGeometry>
        </mxCell>
        <mxCell id="v9iiZSDOCLwyM3xsL_51-73" value="8-调用&lt;div&gt;视图解析器&lt;/div&gt;" style="edgeLabel;html=1;align=center;verticalAlign=middle;resizable=0;points=[];fontSize=25;labelBorderColor=default;fontStyle=1" vertex="1" connectable="0" parent="1">
          <mxGeometry x="1164" y="3243" as="geometry">
            <mxPoint x="-10" y="-6" as="offset" />
          </mxGeometry>
        </mxCell>
        <mxCell id="v9iiZSDOCLwyM3xsL_51-75" value="Cyan_RA9" style="text;strokeColor=none;fillColor=none;html=1;fontSize=25;fontStyle=1;verticalAlign=middle;align=center;rounded=0;shadow=1;sketch=0;rotation=-15;textOpacity=25;" vertex="1" parent="1">
          <mxGeometry x="987.999283766736" y="3332.0001844330495" width="150.36" height="35.09" as="geometry" />
        </mxCell>
        <mxCell id="v9iiZSDOCLwyM3xsL_51-77" value="9-返回View" style="edgeLabel;html=1;align=center;verticalAlign=middle;resizable=0;points=[];fontSize=25;labelBorderColor=default;fontStyle=1" vertex="1" connectable="0" parent="1">
          <mxGeometry x="754" y="3209" as="geometry">
            <mxPoint x="-10" y="-6" as="offset" />
          </mxGeometry>
        </mxCell>
        <mxCell id="v9iiZSDOCLwyM3xsL_51-78" value="视图（View）&lt;div&gt;jsp&lt;span style=&quot;font-weight: normal;&quot;&gt;[&lt;/span&gt;html&lt;span style=&quot;font-weight: normal;&quot;&gt;]&lt;/span&gt; / thymeleaf / freemarker&lt;/div&gt;" style="text;html=1;fontSize=30;fontStyle=1;verticalAlign=middle;align=center;rounded=0;fillColor=#eeeeee;strokeColor=#36393d;" vertex="1" parent="1">
          <mxGeometry x="149" y="3274" width="474.46" height="160" as="geometry" />
        </mxCell>
        <mxCell id="v9iiZSDOCLwyM3xsL_51-80" value="10-进行视图渲染，&lt;div&gt;将Model中的数据填充到View中&lt;/div&gt;" style="edgeLabel;html=1;align=center;verticalAlign=middle;resizable=0;points=[];fontSize=25;labelBorderColor=default;fontStyle=1" vertex="1" connectable="0" parent="1">
          <mxGeometry x="481" y="3180" as="geometry">
            <mxPoint x="-10" y="-6" as="offset" />
          </mxGeometry>
        </mxCell>
        <mxCell id="v9iiZSDOCLwyM3xsL_51-82" value="Cyan_RA9" style="text;strokeColor=none;fillColor=none;html=1;fontSize=25;fontStyle=1;verticalAlign=middle;align=center;rounded=0;shadow=1;sketch=0;rotation=-15;textOpacity=20;" vertex="1" parent="1">
          <mxGeometry x="270.99928376673586" y="3313.000184433049" width="150.36" height="35.09" as="geometry" />
        </mxCell>
        <mxCell id="v9iiZSDOCLwyM3xsL_51-83" value="Cyan_RA9" style="text;strokeColor=none;fillColor=none;html=1;fontSize=25;fontStyle=1;verticalAlign=middle;align=center;rounded=0;shadow=1;sketch=0;rotation=-15;textOpacity=25;" vertex="1" parent="1">
          <mxGeometry x="362.99928376673597" y="3364.0001844330495" width="150.36" height="35.09" as="geometry" />
        </mxCell>
        <mxCell id="v9iiZSDOCLwyM3xsL_51-84" value="11-返回&lt;div&gt;HTTP响应&lt;/div&gt;" style="edgeLabel;html=1;align=center;verticalAlign=middle;resizable=0;points=[];fontSize=25;labelBorderColor=default;fontStyle=1" vertex="1" connectable="0" parent="1">
          <mxGeometry x="640" y="2995" as="geometry" />
        </mxCell>
        <mxCell id="v9iiZSDOCLwyM3xsL_51-86" value="https://blog.csdn.net/TYRA9" style="text;strokeColor=none;fillColor=none;html=1;fontSize=30;fontStyle=1;verticalAlign=middle;align=center;rounded=0;shadow=1;sketch=0;rotation=0;" vertex="1" parent="1">
          <mxGeometry x="1609.5" y="3357.5" width="418" height="48.09" as="geometry" />
        </mxCell>
      </root>
    </mxGraphModel>
  </diagram>
</mxfile>
